<?xml version="1.0" encoding="UTF-8"?>
<!DOCTYPE svg PUBLIC "-//W3C//DTD SVG 1.1//EN" "http://www.w3.org/Graphics/SVG/1.1/DTD/svg11.dtd">
<svg xmlns="http://www.w3.org/2000/svg" version="1.1" width="139px" height="141px" style="shape-rendering:geometricPrecision; text-rendering:geometricPrecision; image-rendering:optimizeQuality; fill-rule:evenodd; clip-rule:evenodd" xmlns:xlink="http://www.w3.org/1999/xlink">
<g><path style="opacity:0.89" fill="#909090" d="M 70.5,11.5 C 75.544,11.1725 80.544,11.5059 85.5,12.5C 84.3112,13.4287 82.9778,13.762 81.5,13.5C 77.8333,12.8333 74.1667,12.1667 70.5,11.5 Z"/></g>
<g><path style="opacity:1" fill="#d0d0d0" d="M 26.5,19.5 C 26.44,18.9569 26.1067,18.6236 25.5,18.5C 24.1731,35.3286 24.1731,51.9952 25.5,68.5C 25.9453,74.1114 28.9453,77.2781 34.5,78C 27.8085,78.8309 21.1418,78.6642 14.5,77.5C 18.9015,76.9899 21.5682,74.6566 22.5,70.5C 23.6621,52.338 23.8288,34.0046 23,15.5C 22.3292,14.7476 21.4959,14.4142 20.5,14.5C 18.4109,14.1433 16.4109,13.4767 14.5,12.5C 19.5,11.1667 24.5,11.1667 29.5,12.5C 41.3333,27.5 53.1667,42.5 65,57.5C 65.3876,59.0758 64.8876,60.4091 63.5,61.5C 61.8333,60.6667 60.1667,59.8333 58.5,59C 47.2181,46.2298 36.5514,33.0631 26.5,19.5 Z"/></g>
<g><path style="opacity:0.553" fill="#3a3a3a" d="M 66.5,11.5 C 67.5,12.1667 68.5,12.8333 69.5,13.5C 68.0222,13.762 66.6888,13.4287 65.5,12.5C 65.6236,11.8933 65.9569,11.56 66.5,11.5 Z"/></g>
<g><path style="opacity:0.999" fill="#bbbbbb" d="M 66.5,11.5 C 67.8333,11.5 69.1667,11.5 70.5,11.5C 74.1667,12.1667 77.8333,12.8333 81.5,13.5C 79.4689,14.5387 78.1355,16.2054 77.5,18.5C 76.8333,27.8333 76.1667,37.1667 75.5,46.5C 74.8826,46.3893 74.3826,46.056 74,45.5C 73.6667,35.8333 73.3333,26.1667 73,16.5C 71.9609,15.2899 70.7942,14.2899 69.5,13.5C 68.5,12.8333 67.5,12.1667 66.5,11.5 Z"/></g>
<g><path style="opacity:0.293" fill="#191919" d="M 77.5,18.5 C 77.8318,28.1896 77.4984,37.8563 76.5,47.5C 75.8933,47.3764 75.56,47.0431 75.5,46.5C 76.1667,37.1667 76.8333,27.8333 77.5,18.5 Z"/></g>
<g><path style="opacity:0.845" fill="#a6a6a6" d="M 26.5,19.5 C 25.5036,35.6581 25.1702,51.9915 25.5,68.5C 24.1731,51.9952 24.1731,35.3286 25.5,18.5C 26.1067,18.6236 26.44,18.9569 26.5,19.5 Z"/></g>
<g><path style="opacity:0.683" fill="#757575" d="M 20.5,14.5 C 21.4959,14.4142 22.3292,14.7476 23,15.5C 23.8288,34.0046 23.6621,52.338 22.5,70.5C 22.6666,52.4969 22.4999,34.4969 22,16.5C 21.2828,15.9558 20.7828,15.2891 20.5,14.5 Z"/></g>
<g><path style="opacity:0.922" fill="#969696" d="M 114.5,64.5 C 119.348,63.1863 124.348,63.1863 129.5,64.5C 127.955,65.4519 126.288,65.7852 124.5,65.5C 121.375,64.5206 118.042,64.1872 114.5,64.5 Z"/></g>
<g><path style="opacity:1" fill="#d8d8d8" d="M 114.5,64.5 C 118.042,64.1872 121.375,64.5206 124.5,65.5C 120.531,67.095 118.865,70.095 119.5,74.5C 120.444,91.1589 121.277,107.826 122,124.5C 122.416,126.55 123.583,127.884 125.5,128.5C 127.167,129.167 128.833,129.833 130.5,130.5C 122.833,130.5 115.167,130.5 107.5,130.5C 108.833,129.833 110.167,129.167 111.5,128.5C 114.465,127.413 115.799,125.246 115.5,122C 114.584,111.523 114.251,101.023 114.5,90.5C 114.666,84.4908 114.499,78.4908 114,72.5C 112.961,73.2438 112.461,74.2438 112.5,75.5C 111.5,75.1667 110.833,74.5 110.5,73.5C 111.561,70.3777 112.895,67.3777 114.5,64.5 Z"/></g>
<g><path style="opacity:1" fill="#999999" d="M 96.5,26.5 C 98.6859,26.5106 99.5192,27.5106 99,29.5C 76.4207,60.9913 54.0874,92.658 32,124.5C 31.2496,123.874 30.4162,123.374 29.5,123C 52.213,91.066 74.5463,58.8993 96.5,26.5 Z"/></g>
<g><path style="opacity:1" fill="#c8c8c8" d="M 93.5,112.5 C 94.5,112.833 95.1667,113.5 95.5,114.5C 94.0116,119.467 92.0116,124.134 89.5,128.5C 88.609,129.11 87.609,129.443 86.5,129.5C 80.0358,116.071 73.7025,102.571 67.5,89C 69,86.8333 70.5,84.6667 72,82.5C 78.2722,94.7109 84.2722,107.044 90,119.5C 91.2126,117.075 92.3793,114.741 93.5,112.5 Z"/></g>
<g><path style="opacity:0.255" fill="#2b2b2b" d="M 114.5,90.5 C 113.833,85.5 113.167,80.5 112.5,75.5C 112.461,74.2438 112.961,73.2438 114,72.5C 114.499,78.4908 114.666,84.4908 114.5,90.5 Z"/></g>
<g><path style="opacity:1" fill="#9c9c9c" d="M 110.5,73.5 C 110.833,74.5 111.5,75.1667 112.5,75.5C 107.07,88.6851 101.403,101.685 95.5,114.5C 95.1667,113.5 94.5,112.833 93.5,112.5C 98.9303,99.3149 104.597,86.3149 110.5,73.5 Z"/></g>
<g><path style="opacity:0.999" fill="#c9c9c9" d="M 58.5,104.5 C 59.1667,111.167 59.8333,117.833 60.5,124.5C 61.5,126.167 62.8333,127.5 64.5,128.5C 65.8333,129.167 67.1667,129.833 68.5,130.5C 62.1667,130.5 55.8333,130.5 49.5,130.5C 50.5,129.833 51.5,129.167 52.5,128.5C 54.1733,127.657 55.34,126.324 56,124.5C 56.2856,117.715 57.1189,111.049 58.5,104.5 Z"/></g>
<g><path style="opacity:0.392" fill="#424242" d="M 60.5,124.5 C 59.8333,117.833 59.1667,111.167 58.5,104.5C 58.7828,103.711 59.2828,103.044 60,102.5C 60.4997,109.826 60.6663,117.159 60.5,124.5 Z"/></g>
<g><path style="opacity:0.412" fill="#414141" d="M 52.5,128.5 C 51.5,129.167 50.5,129.833 49.5,130.5C 48.9569,130.44 48.6236,130.107 48.5,129.5C 49.6888,128.571 51.0222,128.238 52.5,128.5 Z"/></g>
<g><path style="opacity:0.361" fill="#353535" d="M 64.5,128.5 C 66.288,128.215 67.9547,128.548 69.5,129.5C 69.3764,130.107 69.0431,130.44 68.5,130.5C 67.1667,129.833 65.8333,129.167 64.5,128.5 Z"/></g>
<g><path style="opacity:0.455" fill="#2b2b2b" d="M 111.5,128.5 C 110.167,129.167 108.833,129.833 107.5,130.5C 106.957,130.44 106.624,130.107 106.5,129.5C 108.045,128.548 109.712,128.215 111.5,128.5 Z"/></g>
<g><path style="opacity:0.359" fill="#343434" d="M 125.5,128.5 C 127.604,128.201 129.604,128.534 131.5,129.5C 131.376,130.107 131.043,130.44 130.5,130.5C 128.833,129.833 127.167,129.167 125.5,128.5 Z"/></g>
<g><path style="opacity:0.098" fill="#313131" d="M 89.5,128.5 C 88.9473,130.552 87.9473,130.885 86.5,129.5C 87.609,129.443 88.609,129.11 89.5,128.5 Z"/></g>
</svg>
